<svg width="151" height="47" viewBox="0 0 151 47" fill="none" xmlns="http://www.w3.org/2000/svg">
<g clip-path="url(#clip0_1_83)">
<path d="M119.626 20.4728H122.859V33.3728H119.626V20.4728ZM133.091 33.3728L128.389 25.3876L128.499 33.3726H125.376V20.4728H128.554L133.293 28.5671L133.165 20.4725H136.269V33.3728H133.091ZM147.934 33.3728V32.1852C147.585 32.4955 147.309 32.7148 147.144 32.8245C145.931 33.6283 144.627 33.6649 144.113 33.6649C143.654 33.6649 142.698 33.6285 141.615 33.1168C139.263 31.9838 138.272 29.4075 138.272 26.9227C138.272 25.9723 138.455 22.5374 141.468 20.8563C142 20.5458 143.084 20.0341 144.664 20.0341C147.089 20.0341 148.577 21.1671 149.256 21.77C149.715 22.1718 150.009 22.5374 150.377 23.0125L147.915 24.4924C147.86 24.4014 147.493 23.8167 147.089 23.4693C146.262 22.7201 145.27 22.6835 144.903 22.6835C144.664 22.6835 143.801 22.7017 143.121 23.1403C142.349 23.6335 141.505 24.7666 141.505 26.8312C141.505 27.1054 141.505 28.9143 142.405 30.0104C142.735 30.4124 143.176 30.6317 143.341 30.7232C143.58 30.8329 144.168 31.0704 144.903 31.0704C145.123 31.0704 145.527 31.0704 146.023 30.9059C146.28 30.8144 147.07 30.5039 147.456 29.7183C147.658 29.3163 147.713 28.768 147.732 28.6583H144.829V26.2104H150.469V33.3726L147.934 33.3728ZM9.79014 11.6298C8.83971 12.9895 8.05557 14.457 7.4543 16.0013C6.54195 16.5418 5.66872 17.1451 4.84102 17.8068C5.56945 15.0301 6.81736 12.4147 8.51942 10.0976C8.83553 10.6251 9.25249 11.143 9.79014 11.6298ZM50.159 23.5714C50.159 23.8591 50.1543 24.147 50.142 24.4324C49.8601 31.9903 45.8776 38.6255 39.9499 42.5939C40.6971 41.5004 41.2877 40.2343 41.6807 38.8316L41.7097 38.731C45.4847 35.1365 47.9243 30.1632 48.2041 24.6338C48.2088 24.5257 48.2137 24.4204 48.2161 24.3123C48.2258 24.0654 48.2305 23.8183 48.2305 23.5714C48.2304 22.6969 48.1765 21.8233 48.069 20.9553C48.0245 20.6129 47.9722 20.2716 47.9123 19.9315C46.1742 10.0877 37.5174 2.58511 27.1324 2.58511C25.8186 2.58511 24.5312 2.70466 23.2827 2.9375C21.67 3.23375 20.0979 3.71748 18.5987 4.37871C18.5841 4.38573 18.5697 4.39301 18.5553 4.39795C18.2112 4.13877 17.879 3.86433 17.5597 3.57547C17.3521 3.38894 17.134 3.21437 16.9063 3.05262C19.9896 1.52512 23.4634 0.66678 27.1324 0.66678C38.9012 0.66678 48.638 9.49575 49.995 20.8449C50.0322 21.1415 50.062 21.439 50.0843 21.737C50.1107 22.0437 50.13 22.3529 50.1397 22.6648C50.1543 22.9646 50.159 23.2669 50.159 23.5714ZM24.9967 44.4546C25.8353 45.3202 26.8576 46.0013 27.9977 46.4615C27.7094 46.4733 27.4209 46.4789 27.1324 46.4784C21.9858 46.4784 17.2245 44.7903 13.3844 41.9391C14.148 41.728 14.8963 41.4653 15.6239 41.1527C18.4362 42.986 21.651 44.1185 24.9965 44.4546" fill="white"/>
<path d="M46.3968 21.7955C39.8953 21.3878 35.1343 22.7043 31.7665 24.4212C30.8046 24.8528 29.7052 25.4978 28.5291 26.4643C28.5103 26.4801 28.491 26.4953 28.4711 26.5097C25.9785 28.4569 24.9102 30.2794 24.8455 30.3919C24.8428 30.3945 24.8428 30.3968 24.8428 30.3968C19.407 37.7006 10.919 43.012 3.76676 38.269C-3.38574 33.5261 -0.015615 18.3808 17.0226 14.9662C34.0613 11.5492 46.3968 21.7955 46.3968 21.7955Z" fill="#00EAFF"/>
<path d="M28.4711 26.5097C27.314 27.4642 26.0869 28.7254 24.8455 30.3921C24.9105 30.2791 25.9785 28.4569 28.4711 26.5097Z" fill="white"/>
<path d="M45.9707 23.4779C45.9707 23.4779 30.4879 24.3692 25.932 34.8083C21.3758 45.2477 36.2801 49.1488 39.3597 38.1861C42.4393 27.2233 45.9707 23.4779 45.9707 23.4779ZM45.1182 18.7613C45.1182 18.7613 43.0635 11.9658 38.7722 10.4175C34.4806 8.86921 34.1029 13.393 36.9278 14.3308C39.7532 15.2684 42.3043 15.9742 45.1185 18.7613M30.7043 11.0879C30.7043 11.0879 21.6274 3.60691 14.2983 5.38128C6.96917 7.15539 10.6094 13.7243 15.3597 12.4437C20.1093 11.1633 24.2689 9.8133 30.7043 11.0879Z" fill="#00EAFF"/>
<path d="M63.475 44.3512L63.6075 38.4727L62.0486 44.3512H60.8361L59.2772 38.4727L59.4094 44.3512H58.0951V37.1957H60.0516L61.4576 42.5064L62.8433 37.1957H64.7894V44.3512H63.475Z" fill="#00EAFF"/>
<path d="M70.261 44.3512V37.1957H75.376V38.3916H71.5855V40.074H75.0601V41.2294H71.5855V43.1449H75.6307V44.3512H70.261Z" fill="#00EAFF"/>
<path d="M80.5417 44.3512V37.1957H81.8968V43.1347H84.7496V44.3512H80.5417Z" fill="#00EAFF"/>
<path d="M93.4814 41.2496C93.1146 41.0672 92.6357 41.0774 91.7898 41.0774H91.0361V43.1955H92.544C92.9923 43.1955 93.5018 43.2259 93.838 42.8307C93.9297 42.7293 94.0622 42.5469 94.0622 42.2023C94.0622 41.9999 94.001 41.5132 93.4814 41.2496ZM93.5423 38.6754C93.1961 38.2497 92.5641 38.29 92.0853 38.29H91.0361V40.074H91.5048C91.8614 40.074 92.218 40.074 92.5845 40.0537C92.9208 40.0335 93.2471 39.9929 93.4916 39.7294C93.5731 39.6483 93.7155 39.4761 93.7155 39.172C93.7155 39.0907 93.6951 38.868 93.5423 38.6754ZM94.4901 44.0268C93.8584 44.3816 93.2162 44.3512 92.5237 44.3512H89.7011V37.1955H92.2789C92.6357 37.1955 93.0025 37.1955 93.3591 37.2261C93.5833 37.2464 94.1742 37.307 94.6429 37.8036C94.9377 38.1127 95.1018 38.5227 95.1014 38.9488C95.1014 39.1517 95.0505 39.8612 94.4493 40.2362C94.2761 40.3477 94.1131 40.3882 93.9093 40.4287C94.001 40.449 94.2252 40.4895 94.4595 40.6213C94.8263 40.8139 95.4376 41.2902 95.4376 42.3242C95.4376 43.0435 95.132 43.6617 94.4901 44.0268Z" fill="#00EAFF"/>
<path d="M117.986 42.8917C117.752 43.6116 116.927 44.5336 115.164 44.5336C114.318 44.5336 113.473 44.3309 112.882 43.6823C112.79 43.591 112.545 43.2974 112.423 42.912C112.311 42.5472 112.311 42.2127 112.311 41.4526V37.1957H113.666V41.5945C113.666 42.0202 113.666 42.1719 113.737 42.385C113.87 42.8107 114.257 43.2363 115.215 43.2363C115.388 43.2363 116.376 43.2363 116.672 42.4255C116.753 42.1924 116.763 41.9999 116.763 41.5233V37.1957H118.108V41.3209C118.108 42.1418 118.119 42.4861 117.986 42.8917Z" fill="#00EAFF"/>
<path d="M127.125 38.5642C126.891 38.4122 126.616 38.3514 126.045 38.3514H124.955V40.581H125.434C126.219 40.581 126.708 40.581 127.034 40.4087C127.238 40.2972 127.574 40.0337 127.574 39.4561C127.574 39.2734 127.554 38.848 127.125 38.5642ZM127.584 44.3514L126.168 41.6958H124.955V44.3514H123.621V37.1957H126.565C126.891 37.1957 127.859 37.2264 128.501 38.0676C128.919 38.6146 128.939 39.2331 128.939 39.4662C128.939 39.5774 128.929 39.9324 128.807 40.2668C128.695 40.5608 128.348 41.1792 127.523 41.4323L129.123 44.3514H127.584Z" fill="#00EAFF"/>
<path d="M138.466 44.3512L135.317 39.3342L135.399 44.3512H134.085V37.1957H135.297L138.486 42.2431L138.323 37.1957H139.648V44.3512H138.466Z" fill="#00EAFF"/>
<path d="M145.129 44.3512V37.1957H150.245V38.3916H146.454V40.074H149.929V41.2294H146.454V43.1449H150.499V44.3512H145.129Z" fill="#00EAFF"/>
<path d="M69.693 15.8391C69.0705 16.5358 67.3585 18.0838 64.6741 18.0838C64.1877 18.0838 63.0593 18.0259 61.8728 17.5033C58.2544 15.8778 58.0791 11.911 58.0791 10.8273C58.0791 9.99549 58.1766 7.84743 59.7524 5.95118C60.375 5.17704 61.9313 3.59029 64.7324 3.59029C66.5805 3.59029 68.3703 4.3452 69.5762 5.71886C70.082 6.2994 70.3934 6.89943 70.5295 7.13149L67.8256 8.46669C67.631 8.07975 67.4946 7.86666 67.3781 7.71204C67.1252 7.34433 66.2887 6.39607 64.8881 6.39607C64.4991 6.39607 63.5847 6.47351 62.8065 7.20894C62.2424 7.73127 61.5031 8.87286 61.5031 10.7501C61.5031 10.9242 61.5031 11.2532 61.5616 11.6789C61.7949 13.5559 62.6121 14.4072 63.3705 14.8329C63.6236 14.9878 64.1488 15.2198 64.8881 15.2198C66.8138 15.2198 67.5531 13.73 67.8643 13.2074L70.5878 14.5814C70.1795 15.2006 69.8876 15.6068 69.693 15.8391Z" fill="white"/>
<path d="M77.7847 7.2669L76.0923 13.0333H79.5743L77.7847 7.2669ZM81.0334 17.6774L80.3523 15.4909H75.2948L74.6139 17.6774H70.9567L76.0534 4.01597H79.6325L84.6906 17.6774H81.0334Z" fill="white"/>
<path d="M92.4129 6.55096H89.4947V10.2663H92.3348C92.4711 10.2663 92.8601 10.2663 93.2491 10.1309C94.3579 9.76318 94.3971 8.71825 94.3971 8.37003C94.3971 6.58968 93.0158 6.55096 92.4129 6.55096ZM94.3971 17.6774L91.6542 12.8013H89.5141V17.6774H86.0514V4.01623H92.2376C92.6266 4.01623 93.0158 4.01622 93.4049 4.03546C94.0274 4.07418 96.2062 4.20957 97.2761 6.16402C97.4704 6.53173 97.8208 7.32511 97.8208 8.44747C97.8208 9.97601 97.2178 10.7889 96.7507 11.234C96.5563 11.4274 96.323 11.6015 96.1088 11.7369C95.8562 11.8725 95.5643 12.0079 95 12.2207L98.1711 17.6774H94.3971Z" fill="white"/>
<path d="M105.329 7.2669L103.636 13.0333H107.118L105.329 7.2669ZM108.577 17.6774L107.896 15.4909H102.839L102.158 17.6774H98.5005L103.597 4.01597H107.177L112.235 17.6774H108.577Z" fill="white"/>
<path d="M119.821 17.6774H116.319L111.611 4.01597H115.269L118.109 13.73L120.929 4.01597H124.587L119.821 17.6774Z" fill="white"/>
<path d="M130.675 7.2669L128.982 13.0333H132.465L130.675 7.2669ZM133.923 17.6774L133.243 15.4909H128.185L127.504 17.6774H123.846L128.943 4.01597H132.523L137.581 17.6774H133.923Z" fill="white"/>
<path d="M147.112 17.6774L142.132 9.22135L142.248 17.6774H138.942V4.01597H142.307L147.326 12.5882L147.19 4.01597H150.477V17.6774H147.112Z" fill="white"/>
<path d="M69.0036 31.5426C68.4158 32.2003 66.7992 33.6621 64.2642 33.6621C63.8052 33.6621 62.7396 33.6072 61.6191 33.114C58.2025 31.5792 58.0371 27.8335 58.0371 26.8102C58.0371 26.0246 58.1291 23.9963 59.6169 22.2056C60.2047 21.4748 61.6742 19.9765 64.3194 19.9765C66.0645 19.9765 67.7545 20.689 68.8933 21.9865C69.3709 22.5346 69.6648 23.1011 69.7933 23.3202L67.2401 24.581C67.0565 24.2157 66.928 24.0145 66.8177 23.8685C66.5789 23.5213 65.7889 22.6258 64.4665 22.6258C64.0991 22.6258 63.2357 22.6991 62.5008 23.3934C61.9681 23.8867 61.2701 24.9649 61.2701 26.7371C61.2701 26.9016 61.2701 27.2122 61.3252 27.6142C61.5457 29.3865 62.3172 30.1905 63.0335 30.5925C63.2725 30.7386 63.7684 30.9579 64.4665 30.9579C66.285 30.9579 66.9831 29.551 67.277 29.0575L69.8485 30.355C69.4629 30.9397 69.1872 31.3233 69.0036 31.5426Z" fill="white"/>
<path d="M71.4653 33.2785V20.3785H74.6983V30.5559H79.7681V33.2785H71.4653Z" fill="white"/>
<path d="M81.4213 33.2785V20.3785H91.01V22.8636H84.6543V25.2206H90.5875V27.669H84.6543V30.7388H91.5978V33.2785H81.4213Z" fill="white"/>
<path d="M98.4682 23.448L96.8701 28.893H100.158L98.4682 23.448ZM101.536 33.2782L100.893 31.2136H96.1169L95.474 33.2782H92.0205L96.8332 20.3782H100.213L104.989 33.2782H101.536Z" fill="white"/>
<path d="M113.99 33.2785L109.288 25.2936L109.398 33.2785H106.275V20.3785H109.453L114.192 28.473L114.064 20.3785H117.168V33.2785H113.99Z" fill="white"/>
<path d="M133.131 33.2785L128.429 25.2936L128.539 33.2785H125.416V20.3785H128.594L133.333 28.473L133.204 20.3785H136.309V33.2785H133.131Z" fill="white"/>
<path d="M147.973 33.2785V32.0909C147.624 32.4015 147.349 32.6208 147.184 32.7304C145.971 33.5342 144.667 33.5709 144.153 33.5709C143.693 33.5709 142.738 33.5342 141.655 33.0228C139.303 31.8898 138.311 29.3135 138.311 26.8286C138.311 25.8783 138.495 22.4434 141.508 20.7623C142.04 20.4517 143.124 19.9401 144.704 19.9401C147.129 19.9401 148.616 21.0728 149.296 21.676C149.755 22.0777 150.049 22.4434 150.417 22.9184L147.955 24.3983C147.9 24.3071 147.533 23.7224 147.129 23.3752C146.302 22.6261 145.31 22.5894 144.942 22.5894C144.704 22.5894 143.84 22.6076 143.161 23.0463C142.389 23.5395 141.544 24.6725 141.544 26.7371C141.544 27.0113 141.544 28.8202 142.444 29.9163C142.775 30.3184 143.216 30.5377 143.381 30.6292C143.62 30.7388 144.208 30.9763 144.942 30.9763C145.163 30.9763 145.567 30.9763 146.063 30.8119C146.32 30.7204 147.11 30.4098 147.496 29.624C147.698 29.2222 147.753 28.6739 147.772 28.5643H144.869V26.1161H150.508V33.2785H147.973Z" fill="white"/>
<path d="M63.5502 44.2644L63.6826 38.386L62.1238 44.2644H60.9113L59.3524 38.386L59.4847 44.2644H58.1703V37.109H60.1268L61.5328 42.4196L62.9185 37.109H64.8645V44.2644H63.5502ZM70.3361 44.2644V37.109H75.4511V38.3049H71.6607V39.9873H75.1352V41.1426H71.6607V43.0581H75.7058V44.2645L70.3361 44.2644ZM80.617 44.2644V37.109H81.9721V43.048H84.825V44.2644H80.617Z" fill="#00EAFF"/>
<mask id="mask0_1_83" style="mask-type:luminance" maskUnits="userSpaceOnUse" x="-27" y="-35" width="209" height="117">
<path d="M-27 -35H182V82H-27V-35Z" fill="white"/>
</mask>
<g mask="url(#mask0_1_83)">
<path d="M93.5564 41.163C93.1899 40.9806 92.711 40.9907 91.8651 40.9907H91.1111V43.1089H92.6191C93.0674 43.1089 93.5768 43.1393 93.913 42.744C94.0045 42.6427 94.1372 42.4603 94.1372 42.1157C94.1372 41.9132 94.0761 41.4265 93.5564 41.163ZM93.6173 38.5888C93.2711 38.1631 92.6392 38.2034 92.1603 38.2034H91.1111V39.9874H91.5798C91.9364 39.9874 92.293 39.9874 92.6596 39.9671C92.9958 39.9468 93.3221 39.9063 93.5666 39.6428C93.6481 39.5617 93.7905 39.3894 93.7905 39.0854C93.7905 39.004 93.7701 38.7813 93.6173 38.589M94.5651 43.9402C93.9334 44.2949 93.2913 44.2645 92.5987 44.2645H89.7761V37.1088H92.3539C92.7108 37.1088 93.0776 37.1088 93.4342 37.1395C93.6583 37.1598 94.2493 37.2203 94.718 37.7169C95.0127 38.0261 95.1769 38.436 95.1764 38.8621C95.1764 39.0651 95.1255 39.7745 94.5244 40.1495C94.3512 40.2613 94.1881 40.3015 93.9844 40.3421C94.0758 40.3624 94.3002 40.4029 94.5346 40.5346C94.9014 40.7272 95.5127 41.2035 95.5127 42.2375C95.5127 42.9569 95.207 43.5751 94.5651 43.9402Z" fill="#00EAFF"/>
</g>
<mask id="mask1_1_83" style="mask-type:luminance" maskUnits="userSpaceOnUse" x="-27" y="-35" width="209" height="117">
<path d="M-27 -35H182V82H-27V-35Z" fill="white"/>
</mask>
<g mask="url(#mask1_1_83)">
<path d="M105.447 39.0955C105.07 38.4874 104.5 38.153 103.777 38.153C103.458 38.1523 103.144 38.225 102.859 38.3655C102.35 38.6394 101.718 39.3083 101.718 40.6461C101.718 40.92 101.728 42.2375 102.737 42.8961C103.175 43.1801 103.613 43.2004 103.797 43.2004C103.94 43.2004 104.266 43.1902 104.622 43.0281C105.152 42.7846 105.845 42.1765 105.875 40.8286C105.886 40.2407 105.774 39.6124 105.447 39.0955ZM106.232 43.4231C106.069 43.5954 105.651 44.0111 105.009 44.2442C104.785 44.3253 104.367 44.4469 103.756 44.4469C102.737 44.4469 101.963 44.1125 101.29 43.3425C100.618 42.5819 100.332 41.69 100.332 40.6971C100.332 40.4637 100.343 39.9164 100.546 39.3083C101.015 37.8791 102.248 36.9264 103.787 36.9264C105.172 36.9264 105.997 37.6766 106.334 38.0615C106.711 38.4877 107.24 39.3185 107.231 40.6867C107.231 41.1326 107.18 42.3994 106.232 43.4231Z" fill="#00EAFF"/>
</g>
<mask id="mask2_1_83" style="mask-type:luminance" maskUnits="userSpaceOnUse" x="-27" y="-35" width="209" height="117">
<path d="M-27 -35H182V82H-27V-35Z" fill="white"/>
</mask>
<g mask="url(#mask2_1_83)">
<path d="M118.061 42.8051C117.827 43.5249 117.002 44.4469 115.239 44.4469C114.393 44.4469 113.548 44.2442 112.957 43.5956C112.865 43.5044 112.62 43.2108 112.498 42.8254C112.386 42.4605 112.386 42.1261 112.386 41.3657V37.1091H113.741V41.5076C113.741 41.933 113.741 42.0848 113.812 42.2981C113.945 42.7235 114.332 43.1492 115.29 43.1492C115.463 43.1492 116.451 43.1492 116.747 42.3384C116.828 42.1055 116.838 41.913 116.838 41.4364V37.1086H118.183V41.2339C118.183 42.0549 118.194 42.3992 118.061 42.8048" fill="#00EAFF"/>
</g>
<mask id="mask3_1_83" style="mask-type:luminance" maskUnits="userSpaceOnUse" x="-27" y="-35" width="209" height="117">
<path d="M-27 -35H182V82H-27V-35Z" fill="white"/>
</mask>
<g mask="url(#mask3_1_83)">
<path d="M127.2 38.4775C126.966 38.3253 126.691 38.2645 126.12 38.2645H125.03V40.4941H125.509C126.294 40.4941 126.783 40.4941 127.109 40.3218C127.313 40.2103 127.649 39.9468 127.649 39.3691C127.649 39.1865 127.629 38.7611 127.2 38.4773M127.659 44.2645L126.243 41.6089H125.031V44.2648H123.696V37.1088H126.64C126.967 37.1088 127.934 37.1395 128.576 37.9807C128.994 38.5277 129.014 39.1462 129.014 39.3793C129.014 39.4905 129.004 39.8455 128.882 40.1799C128.77 40.4738 128.423 41.0923 127.598 41.3454L129.198 44.2645H127.659Z" fill="#00EAFF"/>
</g>
<mask id="mask4_1_83" style="mask-type:luminance" maskUnits="userSpaceOnUse" x="-27" y="-35" width="209" height="117">
<path d="M-27 -35H182V82H-27V-35Z" fill="white"/>
</mask>
<g mask="url(#mask4_1_83)">
<path d="M138.541 44.2645L135.392 39.2475L135.474 44.2645H134.16V37.1091H135.372L138.561 42.1565L138.398 37.1091H139.723V44.2645H138.541Z" fill="#00EAFF"/>
</g>
<mask id="mask5_1_83" style="mask-type:luminance" maskUnits="userSpaceOnUse" x="-27" y="-35" width="209" height="117">
<path d="M-27 -35H182V82H-27V-35Z" fill="white"/>
</mask>
<g mask="url(#mask5_1_83)">
<path d="M145.205 44.2645V37.1091H150.32V38.305H146.529V39.9874H150.004V41.1427H146.529V43.0579H150.574V44.2645H145.205Z" fill="#00EAFF"/>
</g>
</g>
<defs>
<clipPath id="clip0_1_83">
<rect width="151" height="47" fill="white"/>
</clipPath>
</defs>
</svg>
