<svg width="194" height="26" viewBox="0 0 194 26" fill="none" xmlns="http://www.w3.org/2000/svg">
<path d="M57.7899 1.83818H50.1287C49.3594 1.83818 48.7183 2.44723 48.6862 3.24861V24.8218H57.7899C64.1368 24.8218 69.2977 19.6609 69.2977 13.3139C69.2977 6.96701 64.1368 1.80612 57.7899 1.80612V1.83818ZM54.4241 19.0198V7.54401H57.7899C60.9313 7.54401 63.3354 10.1084 63.3354 13.2819C63.3354 16.4554 60.9313 19.0198 57.7899 19.0198H54.4241ZM115.746 1.83818C115.169 1.83818 114.624 2.15874 114.367 2.70368L109.495 15.6219L104.623 2.70368C104.398 2.15874 103.853 1.83818 103.276 1.83818H96.5767V24.7577H102.347V11.3586L107.604 24.5974H111.482L116.739 11.3906V24.7897H122.477V1.83818H115.746ZM164.79 24.7577H171.009V1.83818H164.79V24.7577ZM125.523 1.83818V23.3472C125.523 24.1486 126.164 24.7897 126.965 24.7897H141.775V19.0198H131.292V15.2373H139.915V10.3649H131.292V7.51196H141.775V1.83818H125.523ZM143.986 1.83818V6.13358C143.986 6.93496 144.627 7.57606 145.429 7.57606H150.205V24.7577H156.424V7.57606H162.642V1.77407L143.986 1.83818ZM82.825 1.54969C76.414 1.54969 71.221 6.80674 71.221 13.2819C71.221 19.7891 76.3819 25.0462 82.7929 25.0462C89.204 25.0462 94.3969 19.7891 94.3969 13.2819C94.3969 6.74263 89.1719 1.54969 82.825 1.54969ZM82.825 19.1801C79.6195 19.1801 77.0871 16.5515 77.0871 13.2819C77.0871 9.98021 79.6515 7.38373 82.825 7.38373C85.9985 7.38373 88.5629 10.0123 88.5629 13.2819C88.5629 16.5836 85.9344 19.1801 82.825 19.1801ZM184.6 7.38373C186.299 7.38373 187.902 8.12101 188.96 9.43527L193.095 5.30014C190.947 2.896 187.87 1.51763 184.632 1.51763C178.221 1.51763 172.964 6.80674 172.964 13.3139C172.964 19.8212 178.221 25.0782 184.632 25.0782C187.87 25.0462 190.915 23.6678 193.095 21.2957L188.96 17.1926C187.87 18.5069 186.267 19.2442 184.6 19.2442C181.491 19.2442 178.894 16.6156 178.894 13.346C178.862 9.9802 181.427 7.38373 184.6 7.38373ZM25.5103 12.2561L13.6819 0.36364L0.731598 13.2819L4.67439 17.2247C5.25138 17.7696 6.14893 17.7696 6.72592 17.2247L13.6498 10.2367L21.5995 18.2505L25.5103 14.3077C26.0873 13.7307 26.0873 12.8331 25.5103 12.2561Z" fill="white"/>
<path d="M29.6133 0.36364L25.6385 4.30644C25.0936 4.88343 25.0936 5.78097 25.6385 6.35797L32.5624 13.2819L24.6448 21.2316L28.5876 25.1423C29.1646 25.6873 30.0621 25.6873 30.6391 25.1423L42.5316 13.2819L29.6133 0.36364Z" fill="white"/>
</svg>
