<svg width="12" height="22" viewBox="0 0 12 22" fill="none" xmlns="http://www.w3.org/2000/svg">
<path d="M0.798278 11.7172H3.20983V21.6452C3.20983 21.8412 3.36866 22 3.56467 22H7.65355C7.84956 22 8.00839 21.8412 8.00839 21.6452V11.764H10.7807C10.9609 11.764 11.1126 11.6287 11.1332 11.4497L11.5542 7.79467C11.5658 7.69411 11.5339 7.59341 11.4666 7.51797C11.3993 7.44246 11.3029 7.39924 11.2018 7.39924H8.00853V5.10812C8.00853 4.41746 8.3804 4.06723 9.11392 4.06723C9.21846 4.06723 11.2018 4.06723 11.2018 4.06723C11.3978 4.06723 11.5566 3.90834 11.5566 3.71239V0.357465C11.5566 0.161452 11.3978 0.00262581 11.2018 0.00262581H8.32441C8.30411 0.00163226 8.25904 0 8.19262 0C7.69336 0 5.95799 0.0980064 4.58717 1.3591C3.06832 2.7566 3.27945 4.42988 3.32991 4.71999V7.39917H0.798278C0.602265 7.39917 0.443439 7.55799 0.443439 7.75401V11.3623C0.443439 11.5583 0.602265 11.7172 0.798278 11.7172Z" fill="white"/>
</svg>
