<svg width="23" height="23" viewBox="0 0 23 23" fill="none" xmlns="http://www.w3.org/2000/svg">
<path d="M15.125 11.5C15.125 12.217 14.9124 12.9178 14.5141 13.5139C14.1158 14.1101 13.5496 14.5747 12.8872 14.8491C12.2248 15.1234 11.496 15.1952 10.7928 15.0553C10.0896 14.9155 9.4437 14.5702 8.93674 14.0633C8.42977 13.5563 8.08452 12.9104 7.94465 12.2072C7.80478 11.504 7.87657 10.7752 8.15094 10.1128C8.4253 9.45039 8.88993 8.88424 9.48606 8.48592C10.0822 8.0876 10.783 7.875 11.5 7.875C12.4611 7.8761 13.3825 8.25837 14.062 8.93795C14.7416 9.61753 15.1239 10.5389 15.125 11.5ZM22.8281 6.51562V16.4844C22.8262 18.1663 22.1573 19.7787 20.968 20.968C19.7787 22.1573 18.1663 22.8262 16.4844 22.8281H6.51562C4.83374 22.8262 3.22129 22.1573 2.03202 20.968C0.842749 19.7787 0.17378 18.1663 0.171875 16.4844V6.51562C0.17378 4.83374 0.842749 3.22129 2.03202 2.03202C3.22129 0.842749 4.83374 0.17378 6.51562 0.171875H16.4844C18.1663 0.17378 19.7787 0.842749 20.968 2.03202C22.1573 3.22129 22.8262 4.83374 22.8281 6.51562ZM16.9375 11.5C16.9375 10.4246 16.6186 9.37328 16.0211 8.47909C15.4236 7.58489 14.5744 6.88796 13.5808 6.47641C12.5873 6.06485 11.494 5.95717 10.4392 6.16698C9.38443 6.37679 8.41556 6.89466 7.65511 7.65511C6.89466 8.41556 6.37679 9.38443 6.16698 10.4392C5.95717 11.494 6.06485 12.5873 6.47641 13.5808C6.88796 14.5744 7.58489 15.4236 8.47909 16.0211C9.37328 16.6186 10.4246 16.9375 11.5 16.9375C12.9416 16.9359 14.3237 16.3625 15.3431 15.3431C16.3625 14.3237 16.9359 12.9416 16.9375 11.5ZM18.75 5.60938C18.75 5.34052 18.6703 5.0777 18.5209 4.85415C18.3715 4.6306 18.1592 4.45636 17.9108 4.35348C17.6624 4.25059 17.3891 4.22367 17.1254 4.27612C16.8617 4.32857 16.6195 4.45804 16.4294 4.64815C16.2393 4.83826 16.1098 5.08048 16.0574 5.34417C16.0049 5.60787 16.0318 5.88119 16.1347 6.12959C16.2376 6.37798 16.4118 6.59028 16.6354 6.73965C16.8589 6.88902 17.1218 6.96875 17.3906 6.96875C17.7512 6.96875 18.0969 6.82553 18.3518 6.5706C18.6068 6.31567 18.75 5.9699 18.75 5.60938Z" fill="white"/>
</svg>
