<svg width="90" height="77" viewBox="0 0 90 77" fill="none" xmlns="http://www.w3.org/2000/svg">
<path d="M52.9598 8.486C50.4748 8.486 47.9968 8.706 45.5988 9.142C44.4438 9.354 43.6778 10.46 43.8878 11.615C44.0998 12.77 45.1988 13.536 46.3608 13.326C48.5078 12.936 50.7278 12.739 52.9608 12.739C70.8798 12.739 85.4568 25.547 85.4568 41.294C85.4568 47.585 83.1708 53.553 78.8478 58.551C78.4238 59.041 78.2448 59.697 78.3658 60.335L80.3468 70.869L69.7128 67.263C69.2638 67.109 68.7758 67.111 68.3288 67.267C64.5288 68.591 57.0588 69.846 52.9608 69.846C35.0438 69.846 20.4668 57.037 20.4668 41.294C20.4668 40.119 19.5138 39.168 18.3408 39.168C17.1658 39.168 16.2148 40.119 16.2148 41.294C16.2148 59.382 32.6988 74.099 52.9618 74.099C57.3498 74.099 64.6128 72.917 69.0228 71.518L82.4288 76.068C82.6508 76.142 82.8808 76.179 83.1118 76.179C83.6168 76.179 84.1128 76 84.5058 75.66C85.0768 75.164 85.3408 74.403 85.2008 73.66L82.7318 60.538C87.3018 54.921 89.7108 48.288 89.7108 41.294C89.7088 23.202 73.2218 8.486 52.9598 8.486Z" fill="white"/>
<path d="M29.5978 36.93C30.1708 37.231 30.8668 37.183 31.3878 36.802C31.9128 36.422 32.1748 35.776 32.0648 35.138L30.1228 23.819L38.3488 15.801C38.8118 15.35 38.9778 14.673 38.7788 14.059C38.5778 13.442 38.0458 12.994 37.4058 12.9L26.0388 11.249L20.9528 0.947C20.6658 0.365 20.0748 0 19.4268 0C18.7788 0 18.1888 0.368 17.9028 0.947L12.8198 11.249L1.4558 12.901C0.815805 12.994 0.284805 13.443 0.0828047 14.06C-0.116195 14.674 0.0498047 15.352 0.512805 15.802L8.7368 23.82L6.7968 35.139C6.6868 35.777 6.9488 36.422 7.4738 36.803C7.76881 37.019 8.1198 37.127 8.4728 37.127C8.7448 37.127 9.0168 37.063 9.2638 36.932L19.4268 31.591L29.5978 36.93Z" fill="white"/>
<path d="M68.8138 28.008H37.1608C35.9858 28.008 35.0348 28.961 35.0348 30.134C35.0348 31.309 35.9858 32.26 37.1608 32.26H68.8138C69.9868 32.26 70.9398 31.309 70.9398 30.134C70.9398 28.961 69.9868 28.008 68.8138 28.008Z" fill="white"/>
<path d="M70.9398 41.166C70.9398 39.993 69.9868 39.04 68.8138 39.04H37.1608C35.9858 39.04 35.0348 39.993 35.0348 41.166C35.0348 42.343 35.9858 43.293 37.1608 43.293H68.8138C69.9868 43.293 70.9398 42.343 70.9398 41.166Z" fill="white"/>
<path d="M37.1608 50.07C35.9858 50.07 35.0348 51.023 35.0348 52.196C35.0348 53.372 35.9858 54.323 37.1608 54.323H49.9698C51.1448 54.323 52.0958 53.372 52.0958 52.196C52.0958 51.023 51.1448 50.07 49.9698 50.07H37.1608Z" fill="white"/>
</svg>
