<svg width="157" height="25" viewBox="0 0 157 25" fill="none" xmlns="http://www.w3.org/2000/svg">
<path d="M103.218 24.7513C110.053 24.7513 115.594 19.2104 115.594 12.3755C115.594 5.54058 110.053 -0.00023365 103.218 -0.00023365C96.3835 -0.00023365 90.8427 5.54058 90.8427 12.3755C90.8427 19.2104 96.3835 24.7513 103.218 24.7513Z" fill="#2C91C4"/>
<path d="M103.323 16.8226L100.785 23.6777L101.439 16.404L96.1802 21.4537L99.9479 15.2004L92.9882 17.4767L99.1106 13.4474L91.8369 12.4794L99.1106 11.5113L92.9882 7.50813L99.9479 9.78442L96.1802 3.50497L101.439 8.58086L100.785 1.281L103.323 8.13607L105.887 1.281L105.207 8.58086L110.492 3.50497L106.724 9.78442L113.684 7.50813L107.562 11.5113L114.809 12.4794L107.562 13.4474L113.684 17.4767L106.724 15.2004L110.492 21.4537L105.207 16.404L105.887 23.6777L103.323 16.8226Z" fill="white" stroke="white" stroke-width="0.9488"/>
<path d="M148.64 11.8518C148.483 8.11027 143.198 8.18876 143.198 8.18876V17.0323C143.198 17.0323 148.64 17.6341 148.64 12.3751V11.8518ZM144.454 23.7827H134.825V1.01973H144.454C144.454 1.01973 156.986 0.548767 156.986 12.6367C156.986 24.6985 144.454 23.7827 144.454 23.7827Z" fill="white"/>
<path d="M126.897 8.86919C126.897 6.77604 123.548 7.19467 123.548 7.19467V11.0932C123.548 11.0932 126.897 11.5903 126.897 9.18317V8.86919ZM116.405 23.7829H115.359V1.01988H126.034C126.034 1.01988 135.008 0.575089 135.008 8.89536C135.008 8.89536 135.61 13.5003 130.56 14.9132C130.56 14.9132 131.424 15.5411 132.575 17.1633L136.683 23.7829H127.316L124.228 17.6866C123.888 16.9278 123.522 16.483 123.496 16.483C123.417 16.4307 123.339 16.3784 123.26 16.326V23.7829H116.405Z" fill="white"/>
<path d="M84.6418 23.7833H76.2692V1.02034H91.523V7.45677H84.6418V9.83773H90.9735V15.8294H84.6418V23.7833Z" fill="white"/>
<path d="M62.1404 23.7833V8.05855L57.0907 8.2417V1.02034H74.5423V8.2417L70.0159 8.05855V23.7833H62.1404Z" fill="white"/>
<path d="M40.3193 23.7833V1.02034H55.5731V7.19513H48.6657V9.39294H55.0237V15.3846H48.6657V17.6085H55.8871V23.7833H40.3193Z" fill="white"/>
<path d="M30.4292 23.7833V15.8032H25.0916V23.7833H17.2162V1.02034H25.0916V8.608H30.4292V1.02034H38.3308V23.7833H30.4292Z" fill="white"/>
<path d="M5.02356 23.7833V8.05855L0 8.2417V1.02034H17.4255V8.2417L12.899 8.05855V23.7833H5.02356Z" fill="white"/>
</svg>
